<svg width="85" height="85" viewBox="0 0 85 85" fill="none" xmlns="http://www.w3.org/2000/svg">
<path d="M42.5 85C65.9721 85 85 65.9721 85 42.5C85 19.0279 65.9721 0 42.5 0C19.0279 0 0 19.0279 0 42.5C0 65.9721 19.0279 85 42.5 85Z" fill="#929292"/>
<path fill-rule="evenodd" clip-rule="evenodd" d="M42.5 19.29C36.8503 19.2953 31.3866 21.3102 27.0863 24.9745C22.7859 28.6388 19.9293 33.7134 19.0274 39.2907C18.1255 44.868 19.2371 50.5843 22.1634 55.4172C25.0897 60.2501 29.6399 63.8844 35 65.67C36.19 65.89 36.62 65.15 36.62 64.53C36.62 63.91 36.62 62.08 36.62 60.1C30 61.53 28.62 57.29 28.62 57.29C27.54 54.54 25.9801 53.8 25.9801 53.8C23.8201 52.33 26.1401 52.36 26.1401 52.36C26.8949 52.4633 27.6161 52.7377 28.2487 53.1624C28.8813 53.587 29.4085 54.1505 29.7901 54.81C31.9101 58.45 35.3601 57.4 36.7201 56.81C36.8213 55.602 37.3579 54.4719 38.2301 53.63C32.9401 53.03 27.3801 50.98 27.3801 41.86C27.3468 39.4957 28.2282 37.21 29.84 35.48C29.1063 33.4282 29.1887 31.1729 30.0701 29.18C30.0701 29.18 32.07 28.54 36.61 31.62C40.5118 30.5533 44.6283 30.5533 48.53 31.62C53.08 28.54 55.0701 29.18 55.0701 29.18C55.9514 31.1729 56.0337 33.4282 55.3 35.48C56.9092 37.211 57.787 39.4969 57.75 41.86C57.75 51.01 52.1901 53.02 46.8901 53.61C47.4562 54.1886 47.8925 54.8811 48.1702 55.6415C48.4478 56.4019 48.5602 57.2127 48.5 58.02C48.5 61.2 48.5 63.76 48.5 64.55C48.5 65.18 48.9301 65.92 50.1401 65.69C55.5035 63.9033 60.0558 60.2657 62.9818 55.4286C65.9079 50.5916 67.0166 44.8709 66.1095 39.291C65.2023 33.711 62.3386 28.6361 58.031 24.9751C53.7234 21.314 48.2533 19.3058 42.6001 19.31L42.5 19.29Z" fill="white"/>
<path d="M27.71 53.46C27.71 53.58 27.48 53.61 27.31 53.53C27.14 53.45 27.04 53.29 27.09 53.17C27.14 53.05 27.33 53.02 27.5 53.1C27.67 53.18 27.77 53.34 27.71 53.46Z" fill="white"/>
<path d="M28.6798 54.53C28.5698 54.64 28.3398 54.59 28.1898 54.42C28.1197 54.3614 28.0738 54.2789 28.0608 54.1884C28.0479 54.098 28.0689 54.0059 28.1198 53.93C28.2398 53.82 28.4498 53.87 28.6098 54.04C28.7698 54.21 28.7998 54.43 28.6798 54.53Z" fill="white"/>
<path d="M29.6202 55.91C29.4702 56.01 29.2302 55.91 29.0902 55.7C28.9502 55.49 28.9402 55.23 29.0902 55.13C29.2402 55.03 29.4702 55.13 29.6202 55.33C29.7702 55.53 29.7702 55.8 29.6202 55.91Z" fill="white"/>
<path d="M30.9002 57.23C30.7702 57.37 30.4902 57.33 30.2902 57.14C30.0902 56.95 30.0202 56.67 30.1602 56.53C30.3002 56.39 30.5702 56.43 30.7702 56.62C30.9702 56.81 31.0402 57.09 30.9002 57.23Z" fill="white"/>
<path d="M32.6799 58C32.6199 58.18 32.3498 58.27 32.0798 58.19C31.8098 58.11 31.6399 57.89 31.6899 57.7C31.7399 57.51 32.0199 57.43 32.2899 57.51C32.5599 57.59 32.7299 57.81 32.6799 58Z" fill="white"/>
<path d="M34.6201 58.14C34.6201 58.34 34.4001 58.5 34.1201 58.5C33.8401 58.5 33.6001 58.35 33.6001 58.16C33.6001 57.97 33.8201 57.8 34.1101 57.79C34.4001 57.78 34.6201 57.95 34.6201 58.14Z" fill="white"/>
<path d="M36.4399 57.83C36.4399 58.02 36.2699 58.22 35.9899 58.27C35.7099 58.32 35.4599 58.21 35.4299 58.02C35.3999 57.83 35.5899 57.62 35.8699 57.57C36.1499 57.52 36.3999 57.64 36.4399 57.83Z" fill="white"/>
</svg>
