<svg width="85" height="85" viewBox="0 0 85 85" fill="none" xmlns="http://www.w3.org/2000/svg">
<path d="M42.5 85C65.9721 85 85 65.9721 85 42.5C85 19.0279 65.9721 0 42.5 0C19.0279 0 0 19.0279 0 42.5C0 65.9721 19.0279 85 42.5 85Z" fill="#929292"/>
<path d="M42.5002 23C48.8502 23 49.6102 23 52.1202 23.14C53.6301 23.1532 55.126 23.4307 56.5402 23.96C57.5638 24.3575 58.4934 24.9638 59.2699 25.7403C60.0463 26.5168 60.6526 27.4464 61.0502 28.47C61.5795 29.8842 61.857 31.3801 61.8702 32.89C61.9902 35.4 62.0102 36.16 62.0102 42.51C62.0102 48.86 62.0102 49.62 61.8702 52.13C61.857 53.6399 61.5795 55.1358 61.0502 56.55C60.6526 57.5736 60.0463 58.5033 59.2699 59.2797C58.4934 60.0562 57.5638 60.6625 56.5402 61.06C55.126 61.5893 53.6301 61.8669 52.1202 61.88C49.6102 62 48.8602 62.02 42.5002 62.02C36.1402 62.02 35.3902 62.02 32.8802 61.88C31.3702 61.8669 29.8743 61.5893 28.4602 61.06C27.4448 60.6556 26.5243 60.0451 25.7567 59.2672C24.9891 58.4892 24.391 57.5607 24.0002 56.54C23.4708 55.1259 23.1933 53.6299 23.1802 52.12C23.0602 49.61 23.0402 48.85 23.0402 42.5C23.0402 36.15 23.0402 35.39 23.1802 32.88C23.1933 31.3701 23.4708 29.8741 24.0002 28.46C24.3979 27.4504 24.9991 26.5335 25.7664 25.7662C26.5337 24.999 27.4506 24.3977 28.4602 24C29.8743 23.4707 31.3702 23.1931 32.8802 23.18C35.3902 23.06 36.1502 23.04 42.5002 23.04M42.5002 18.75C36.0402 18.75 35.2302 18.75 32.6902 18.89C30.7146 18.9309 28.7603 19.3062 26.9102 20C25.3158 20.6073 23.8679 21.545 22.6615 22.7514C21.4551 23.9578 20.5175 25.4057 19.9102 27C19.2163 28.8501 18.841 30.8045 18.8002 32.78C18.6902 35.32 18.6602 36.13 18.6602 42.59C18.6602 49.05 18.6602 49.86 18.8002 52.4C18.8798 54.3503 19.2854 56.2736 20.0002 58.09C20.6075 59.6843 21.5451 61.1322 22.7515 62.3386C23.9579 63.545 25.4058 64.4827 27.0002 65.09C28.8503 65.7838 30.8046 66.1592 32.7802 66.2C35.3202 66.31 36.1302 66.34 42.5902 66.34C49.0502 66.34 49.8602 66.34 52.4002 66.2C54.3757 66.1592 56.33 65.7838 58.1802 65.09C59.7745 64.4827 61.2224 63.545 62.4288 62.3386C63.6352 61.1322 64.5728 59.6843 65.1802 58.09C65.874 56.2399 66.2493 54.2855 66.2902 52.31C66.4002 49.77 66.4302 48.96 66.4302 42.5C66.4302 36.04 66.4302 35.23 66.2902 32.69C66.2493 30.7145 65.874 28.7601 65.1802 26.91C64.5728 25.3157 63.6352 23.8678 62.4288 22.6614C61.2224 21.455 59.7745 20.5173 58.1802 19.91C56.33 19.2162 54.3757 18.8408 52.4002 18.8C49.8602 18.69 49.0502 18.66 42.5902 18.66L42.5002 18.75Z" fill="white"/>
<path d="M42.4998 30.28C40.0829 30.28 37.7203 30.9967 35.7107 32.3394C33.7012 33.6822 32.1349 35.5907 31.21 37.8236C30.2851 40.0565 30.0431 42.5136 30.5146 44.884C30.9861 47.2545 32.1499 49.4318 33.8589 51.1408C35.5679 52.8498 37.7453 54.0137 40.1158 54.4852C42.4862 54.9567 44.9433 54.7147 47.1762 53.7898C49.4091 52.8649 51.3176 51.2986 52.6603 49.2891C54.0031 47.2795 54.7198 44.9169 54.7198 42.5C54.7198 39.2591 53.4323 36.1509 51.1406 33.8592C48.8489 31.5675 45.7407 30.28 42.4998 30.28ZM42.4998 50.43C40.9314 50.43 39.3982 49.9649 38.0941 49.0936C36.79 48.2222 35.7736 46.9837 35.1734 45.5347C34.5732 44.0856 34.4162 42.4912 34.7222 40.9529C35.0281 39.4147 35.7834 38.0017 36.8924 36.8926C38.0015 35.7836 39.4145 35.0284 40.9527 34.7224C42.491 34.4164 44.0855 34.5734 45.5345 35.1736C46.9835 35.7738 48.222 36.7902 49.0933 38.0943C49.9647 39.3984 50.4298 40.9316 50.4298 42.5C50.4298 44.6032 49.5943 46.6202 48.1071 48.1074C46.62 49.5945 44.603 50.43 42.4998 50.43Z" fill="white"/>
<path d="M55.1998 32.66C56.7794 32.66 58.0598 31.3795 58.0598 29.8C58.0598 28.2205 56.7794 26.94 55.1998 26.94C53.6203 26.94 52.3398 28.2205 52.3398 29.8C52.3398 31.3795 53.6203 32.66 55.1998 32.66Z" fill="white"/>
</svg>
