<svg width="85" height="85" viewBox="0 0 85 85" fill="none" xmlns="http://www.w3.org/2000/svg">
<path d="M42.5 85C65.9721 85 85 65.9721 85 42.5C85 19.0279 65.9721 0 42.5 0C19.0279 0 0 19.0279 0 42.5C0 65.9721 19.0279 85 42.5 85Z" fill="#929292"/>
<path d="M19.3098 34.36H29.1798V66.1H19.3098V34.36ZM24.2498 18.59C25.3811 18.59 26.487 18.9255 27.4276 19.554C28.3683 20.1825 29.1014 21.0759 29.5344 22.1211C29.9673 23.1663 30.0806 24.3163 29.8599 25.4259C29.6392 26.5355 29.0944 27.5547 28.2944 28.3546C27.4945 29.1546 26.4753 29.6994 25.3657 29.9201C24.2561 30.1408 23.106 30.0275 22.0608 29.5946C21.0156 29.1617 20.1223 28.4285 19.4938 27.4879C18.8653 26.5472 18.5298 25.4413 18.5298 24.31C18.5298 22.793 19.1324 21.3381 20.2051 20.2654C21.2778 19.1926 22.7327 18.59 24.2498 18.59Z" fill="white"/>
<path d="M35.3696 34.36H44.8196V38.7H44.9996C45.9462 37.0825 47.3139 35.752 48.9569 34.8504C50.6 33.9488 52.4568 33.5097 54.3296 33.58C64.3296 33.58 66.1596 40.15 66.1596 48.69V66.1H56.2996V50.67C56.2996 46.99 56.2396 42.25 51.1796 42.25C46.1196 42.25 45.2596 46.25 45.2596 50.4V66.1H35.4096L35.3696 34.36Z" fill="white"/>
</svg>
