<svg width="4713" height="3361" viewBox="0 0 4713 3361" fill="none" xmlns="http://www.w3.org/2000/svg">
<path fill-rule="evenodd" clip-rule="evenodd" d="M2356.48 293.398C3122.42 293.398 3743.34 914.32 3743.34 1680.27C3743.34 2446.21 3122.42 3067.13 2356.48 3067.13C1590.53 3067.13 969.613 2446.21 969.613 1680.27C969.613 914.32 1590.53 293.398 2356.48 293.398Z" fill="#D6D6D6"/>
<path fill-rule="evenodd" clip-rule="evenodd" d="M3549.16 2388.25C3307.35 2794.72 2863.76 3067.13 2356.48 3067.13C2102.05 3067.13 1863.67 2998.55 1658.69 2878.98C1760.71 2770.9 1876.62 2654.13 1954.75 2593.76C2123.63 2463.26 2379.5 2414.64 2379.5 2414.64L2302.74 2194.59C2302.74 2194.59 1967.55 2263.68 1880.55 2110.15C1793.55 1956.62 1734.69 1664.92 1701.43 1524.19C1668.17 1383.45 1663.05 1339.95 1663.05 1339.95C1663.05 1339.95 1320.17 1217.12 1384.14 984.281C1448.11 751.422 1714.23 766.781 1714.23 766.781C1714.23 766.781 1849.84 521.141 2057.1 521.141C2264.36 521.141 2307.86 567.191 2307.86 567.191C2307.86 567.191 2543.28 508.34 2689.13 605.57C2834.98 702.809 2852.89 902.391 2852.89 902.391C2852.89 902.391 3055.03 953.57 3088.3 1119.89C3121.56 1286.21 3021.77 1897.76 3021.77 1897.76C3021.77 1897.76 3354.13 2179.13 3549.16 2388.25Z" fill="#C4C4C4"/>
<path fill-rule="evenodd" clip-rule="evenodd" d="M2169.28 2477.41C2248.47 2446.46 2319.38 2428.16 2355.09 2419.92C2243.91 2499.92 2187.61 2501.64 2187.61 2501.64L2169.28 2477.41ZM2375.95 2404.46L2302.74 2194.59C2302.74 2194.59 2417.89 2158.77 2504.89 2102.47C2591.89 2046.18 2625.16 1966.86 2625.16 1966.86C2625.16 1966.86 2604.69 2207.39 2438.37 2353.23C2416.09 2372.78 2395.28 2389.73 2375.95 2404.46Z" fill="#ACACAC"/>
<path fill-rule="evenodd" clip-rule="evenodd" d="M3549.16 2388.25C3307.35 2794.72 2863.76 3067.13 2356.48 3067.13C2102.05 3067.13 1863.67 2998.55 1658.69 2878.98C1760.71 2770.9 1876.62 2654.13 1954.75 2593.76C2123.63 2463.26 2379.5 2414.64 2379.5 2414.64C2379.5 2414.64 2522.81 2453.02 2858.02 2335.32C3052.72 2266.95 3108.41 2106.22 3120.91 1983.49C3234.47 2083.06 3421.32 2251.17 3549.16 2388.25Z" fill="#6D6D6D"/>
<path fill-rule="evenodd" clip-rule="evenodd" d="M1663.05 1339.95C1663.05 1339.95 1320.17 1217.12 1384.14 984.281C1448.11 751.422 1714.23 766.781 1714.23 766.781C1714.23 766.781 1849.84 521.141 2057.1 521.141C2264.36 521.141 2307.86 567.191 2307.86 567.191C2307.86 567.191 2543.28 508.34 2689.13 605.57C2834.98 702.809 2852.89 902.391 2852.89 902.391C2852.89 902.391 3055.03 953.57 3088.3 1119.89C3121.56 1286.21 3021.77 1897.76 3021.77 1897.76C2873.35 1908 2681.46 1544.65 2653.31 1444.86C2625.16 1345.06 2484.43 1311.8 2448.61 1362.97C2412.78 1414.15 2499.78 1560 2499.78 1560L2428.14 1567.67L2338.58 1406.47C2338.58 1406.47 2277.17 1416.71 2197.85 1378.32C2118.53 1339.94 1980.35 1204.33 1980.35 1204.33C1980.35 1204.33 1947.09 1235.03 1824.26 1286.21C1701.44 1337.39 1663.05 1339.95 1663.05 1339.95Z" fill="#313131"/>
</svg>
